<mxfile host="app.diagrams.net" agent="Mozilla/5.0 (Windows NT 10.0; Win64; x64) AppleWebKit/537.36 (KHTML, like Gecko) Chrome/130.0.0.0 Safari/537.36" version="24.8.3">
  <diagram name="Page-1" id="c4acf3e9-155e-7222-9cf6-157b1a14988f">
    <mxGraphModel dx="658" dy="741" grid="1" gridSize="10" guides="1" tooltips="1" connect="1" arrows="1" fold="1" page="1" pageScale="1" pageWidth="850" pageHeight="1100" background="none" math="0" shadow="0">
      <root>
        <mxCell id="0" />
        <mxCell id="1" parent="0" />
        <mxCell id="9yJfj2oi-iAHz4sEqN4E-1" value="&lt;p style=&quot;margin:0px;margin-top:4px;text-align:center;&quot;&gt;&lt;i&gt;&amp;lt;&amp;lt;Interface&amp;gt;&amp;gt;&lt;/i&gt;&lt;br&gt;&lt;span style=&quot;background-color: initial; text-align: left;&quot;&gt;&lt;b&gt;IRoleStore&amp;lt;TRole&amp;gt;&lt;/b&gt;&lt;/span&gt;&lt;/p&gt;&lt;hr size=&quot;1&quot; style=&quot;border-style:solid;&quot;&gt;&lt;p style=&quot;margin:0px;margin-left:4px;&quot;&gt;CreateAsync(): Task&amp;lt;IdentityResult&amp;gt;&lt;br&gt;UpdateAsync(): Task&amp;lt;IdentityResult&amp;gt;&lt;/p&gt;&lt;p style=&quot;margin:0px;margin-left:4px;&quot;&gt;DeleteAsync():&amp;nbsp;Task&amp;lt;IdentityResult&amp;gt;&lt;/p&gt;&lt;p style=&quot;margin:0px;margin-left:4px;&quot;&gt;GetRoleIdAsync():&amp;nbsp;Task&amp;lt;string&amp;gt;&lt;/p&gt;&lt;p style=&quot;margin:0px;margin-left:4px;&quot;&gt;GetRoleNameAsync():&amp;nbsp;Task&amp;lt;string?&amp;gt;&lt;/p&gt;&lt;p style=&quot;margin:0px;margin-left:4px;&quot;&gt;SetRoleNameAsync():&amp;nbsp;Task&lt;/p&gt;&lt;p style=&quot;margin:0px;margin-left:4px;&quot;&gt;GetNormalizedRoleNameAsync():&amp;nbsp;Task&amp;lt;string?&amp;gt;&lt;/p&gt;&lt;p style=&quot;margin:0px;margin-left:4px;&quot;&gt;SetNormalizedRoleNameAsync():&amp;nbsp;Task&lt;/p&gt;&lt;p style=&quot;margin:0px;margin-left:4px;&quot;&gt;FindByIdAsync():&amp;nbsp;Task&amp;lt;TRole?&amp;gt;&lt;/p&gt;&lt;p style=&quot;margin:0px;margin-left:4px;&quot;&gt;FindByNameAsync():&amp;nbsp;Task&amp;lt;TRole?&amp;gt;&lt;/p&gt;&lt;p style=&quot;margin:0px;margin-left:4px;&quot;&gt;&lt;br&gt;&lt;/p&gt;" style="verticalAlign=top;align=left;overflow=fill;html=1;whiteSpace=wrap;" vertex="1" parent="1">
          <mxGeometry x="160" y="80" width="270" height="190" as="geometry" />
        </mxCell>
      </root>
    </mxGraphModel>
  </diagram>
</mxfile>
